<svg xmlns="http://www.w3.org/2000/svg" width="48" height="48" fill="none" viewBox="0 0 48 48" id="campsite">
  <path fill="#000" fill-rule="evenodd" d="M21.2591 8.34938C21.7192 8.04377 22.3398 8.16895 22.6454 8.62898L24 10.668L25.3545 8.62898C25.6601 8.16895 26.2808 8.04377 26.7408 8.34938C27.2009 8.65499 27.326 9.27565 27.0204 9.73568L25.2005 12.4751L27.0204 15.2146C27.021 15.2155 27.0216 15.2163 27.0221 15.2172L42.3329 38.2643C42.6385 38.7243 42.5134 39.345 42.0533 39.6506C41.5933 39.9562 40.9726 39.831 40.667 39.371L38.125 35.5445V38.2177C38.125 39.1013 37.4086 39.8177 36.525 39.8177H11.475C10.5913 39.8177 9.87499 39.1013 9.87499 38.2177V35.5445L7.33293 39.371C7.02733 39.831 6.40666 39.9562 5.94664 39.6506C5.48661 39.345 5.36143 38.7243 5.66704 38.2643L20.9776 15.2175C20.9783 15.2165 20.9789 15.2156 20.9795 15.2146L22.7994 12.4751L20.9795 9.73568C20.6739 9.27565 20.7991 8.65499 21.2591 8.34938ZM24 14.2823L11.875 32.5339V37.8177H36.125V32.5339L24 14.2823Z" clip-rule="evenodd"></path>
  <path fill="#000" fill-rule="evenodd" d="M24 26.1394C24.4514 26.1394 24.8468 26.4418 24.9651 26.8774L28.4783 39.8176H19.5218L23.035 26.8774C23.1532 26.4418 23.5487 26.1394 24 26.1394Z" clip-rule="evenodd"></path>
</svg>
